<?xml version="1.0" encoding="UTF-8"?>
<!DOCTYPE svg PUBLIC "-//W3C//DTD SVG 1.1//EN" "http://www.w3.org/Graphics/SVG/1.1/DTD/svg11.dtd">
<!-- Creator: CorelDRAW 2021 (64 Bit) -->
<svg xmlns="http://www.w3.org/2000/svg" xml:space="preserve" width="54.9908mm" height="18.3215mm" version="1.1" style="shape-rendering:geometricPrecision; text-rendering:geometricPrecision; image-rendering:optimizeQuality; fill-rule:evenodd; clip-rule:evenodd"
viewBox="0 0 188.88 62.93"
 xmlns:xlink="http://www.w3.org/1999/xlink"
 xmlns:xodm="http://www.corel.com/coreldraw/odm/2003">
 <defs>
  <style type="text/css">
   <![CDATA[
    .fil0 {fill:#1E4338}
    .fil1 {fill:#303635}
    .fil2 {fill:#FAF8F5}
   ]]>
  </style>
 </defs>
 <g id="Camada_x0020_1">
  <metadata id="CorelCorpID_0Corel-Layer"/>
  <path class="fil0" d="M73.82 61.64l-1.41 -0.03c-0.2,-1.28 -0.53,-7.06 0.71,-7.04 1.27,0.02 0.81,5.73 0.7,7.07zm-10.24 0.05l-4.29 -0.04c-0.11,-1.57 -0.04,-3.46 -0.04,-5.08 0.01,-3.92 2.98,-3.6 3.9,-2.49 0.8,0.96 0.45,6.27 0.43,7.62zm-11.72 -0.05c-1.35,-0.09 -4.07,-0.3 -5.18,0.16 -0.13,-3.18 -0.95,-9.22 2.58,-9.33 1.98,-0.06 2.63,1.44 2.7,3.3 0.05,1.26 0.16,4.83 -0.1,5.87zm-9.12 0l-5.09 0c-0.04,-1.86 -0.01,-3.8 -0.02,-5.7 -0.02,-4.57 5.03,-4.74 5.17,-0.18 0.04,1.31 0.16,4.77 -0.07,5.87zm35.57 -6.69c0.49,0.82 0.3,3.8 0.3,5.16 0,1.03 0.26,1.23 -0.51,1.4 -0.3,-0.53 -0.16,-1.64 -0.15,-3.28 0,-1.03 -0.23,-2.62 0.36,-3.28zm-2.28 -0.01c0.97,0.49 0.57,3.5 0.59,5.38 0.02,1.34 0.26,1.26 -0.79,1.33 -0.31,-0.49 -0.28,-0.52 -0.28,-1.55 0,-1.52 -0.26,-4.42 0.49,-5.16zm-42.38 6.77l-4.51 -0.07c0.05,-4.01 -0.82,-8.85 2.24,-8.77 3.12,0.08 2.23,5.93 2.27,8.84zm-8.1 -0.17l-3.87 -0.03c0.14,-2.32 -0.79,-8.16 1.85,-8.37 2.95,-0.24 1.98,5.96 2.02,8.4zm-6.85 -0.02l-3.1 -0.01c0.06,-2.16 -0.72,-7.79 1.5,-7.95 2.51,-0.19 1.55,5.88 1.6,7.97zm-8.24 -2.46c0,-1.1 -0.41,-4.9 1.2,-4.94 1.64,-0.04 1.29,3.72 1.3,5.14l0 2.25 -2.5 -0.01 0.01 -2.44zm-1.93 -2.7l-0.02 5.17 -1.62 0.01c0.04,-1.79 -0.04,-3.61 0.01,-5.4 0.06,-2.7 1.65,-2.54 1.64,0.22zm-3.93 -1.83c0.9,0.35 0.61,1.58 0.61,3.29 -0,0.72 0.16,3.16 -0.19,3.74 -1.11,-0.14 -0.7,0.3 -0.72,-3.33 -0.01,-1.24 -0.13,-2.72 0.3,-3.7zm65.61 7.07c-1.09,0.02 -0.81,-0.2 -1.12,-1.39 -0.52,-1.97 -1.82,-4.62 -0.74,-5.72 2.77,-2.83 1.94,6.75 1.86,7.11zm7.81 -11.36c-0.22,-0.83 -0.27,-5.02 0.12,-5.87 0.62,0.47 0.47,2.07 0.45,3.07 -0.01,0.63 -0.01,1.27 -0.02,1.89 -0.02,0.92 0.14,0.94 -0.56,0.91zm-2.55 -0.58c0.08,-1.82 -0.36,-4.62 0.55,-5.92 1.07,1.04 0.35,4.38 0.51,6.11l-1.06 -0.2zm-3.33 -2.43c0.01,-1.79 -0.22,-3.09 0.54,-4.31 1.79,0.37 1,3.61 1.1,6.4l-1.65 -0.14 0.01 -1.95zm-67.58 1.72c-0.11,-1.42 -0.31,-4.65 0.47,-5.6 0.72,0.84 0.36,4.02 0.39,5.41l-0.86 0.19zm63.54 -0.24c-0.24,-1.2 -0.75,-6.87 1.01,-6.59 1.53,0.25 1.13,5.2 1.03,6.67 -0.82,-0.09 -1.31,-0.29 -2.05,-0.09zm-61.11 -3.56c-0,-1.34 -0.22,-2.68 0.91,-3.06 0.91,1.35 0.53,4.09 0.56,6.07l-1.5 0.3 0.04 -2.89 -0 -0.42zm3.45 2.77c0.11,-2.52 -0.66,-5.84 1.24,-7.05 1.19,0.49 1.2,1.24 1.2,2.62l-0.02 4.07 -2.42 0.37zm5.06 -0.7c0.16,-1.94 -0.82,-7.04 1.42,-7.39 2.25,-0.35 1.72,5.26 1.66,7.09l-3.08 0.29zm6.26 -0.54c-0.26,-1.35 -0.31,-6.26 0.43,-7.22 0.56,-0.72 1.85,-1.07 2.67,-0.23 1.02,1.05 0.71,5.47 0.72,7.15l-3.83 0.3zm41.44 0.19c-0.25,-1.52 -0.88,-5.32 0.99,-5.25 1.76,0.06 1.3,3.76 1.35,5.36l-2.34 -0.11zm-34.2 -0.72c0.25,-2.89 -0.96,-8.35 2.41,-8.44 3.19,-0.09 2.42,5.43 2.4,8.18l-4.8 0.27zm8.75 -0.42c-0.2,-1.27 -0.12,-4.36 -0.08,-5.78 0.06,-1.73 0.91,-3.06 2.66,-3.08 3.72,-0.05 2.58,5.55 2.67,8.61l-5.26 0.24zm15.1 -2.86c-0,-1.05 -0.08,-1.97 0.53,-2.73 0.96,-1.18 4.86,-2.26 4.21,5.02l-4.75 0.17 -0 -2.45zm-48.13 -5.58c0.17,-2.65 -0.4,-4.75 0.78,-5.2l0.14 4.83c-0.46,0.15 -0.46,0.18 -0.92,0.36zm2.65 -2.94c0,-1.59 -0.31,-3.6 0.79,-4.32 0.8,0.62 0.6,1.99 0.6,3.28 0,2.47 0.27,2.17 -1.39,2.72l0 -1.68zm3.54 0.38c0.13,-1.86 -0.5,-6.29 1.14,-6.84 1.75,-0.59 1.25,4.75 1.25,6.16l-2.39 0.68zm4.99 -1.31c-0.12,-2.2 -0.53,-6.81 1.32,-7.45 2.39,-0.83 1.77,4.83 1.76,6.79l-3.08 0.66zm6.11 -1.19c0.11,-2.44 -0.65,-7.4 1.76,-7.8 3.01,-0.51 1.89,5 2.16,7.2l-3.92 0.61zm7.3 -0.97c0.18,-3.33 -0.95,-7.97 2.36,-8.46 3.66,-0.54 2.62,5.34 2.64,7.92l-5 0.54zm-9.57 -18.87l0 0.78 -0 0.62 -0 1.37 -1.57 0.28 -0.01 -2.87 1.57 -0.18zm10.28 -11.1c-2.01,-0.39 -7.87,1.45 -9.78,2.15 -6.76,2.46 -13.76,6.12 -17.86,12.27 -1.99,2.99 -1.29,3.15 -0.31,3.69 0.12,2.5 0.17,6.26 0.03,8.73 -0.08,1.32 -0.95,1.88 -1.18,3.17 -0.3,1.63 0.74,1.42 0.77,3.45 0.01,1.07 0.11,3.42 -0.01,4.36 -0.15,1.12 -1.38,1.51 -1.42,2.92 -0.04,1.57 1,1.05 1.02,3.31 0.01,1.45 -0.02,2.92 -0.01,4.37 -0.39,0.33 -0.88,0.67 -1.24,0.98 0,1.55 0.33,1.26 0.8,2.39 0.59,1.41 -0.12,6.7 0.34,8.81 2.83,0.51 6.95,0.5 9.89,0.54 3.14,0.05 6.63,0.13 9.76,0.22 13.25,0.38 27.66,0.33 40.9,-0 3.6,-0.09 17.1,-0.16 19.63,-0.79l-0.07 -14.65c-0,-2.49 -0,-4.99 0.01,-7.48 0.01,-2.78 -0.88,-3.7 -2.59,-4.73 -0.47,-0.28 -0.19,-0.11 -0.68,-0.36 -0.42,-0.22 -0.19,-0.1 -0.54,-0.29l-3.95 -1.68c-1.73,-0.6 -3.81,-1.17 -5.72,-1.54 -4.36,-0.85 -9,-1.32 -13.47,-1.4l-0.41 2.48 -6.94 0.21c-0.11,-0.79 -0.47,-1.5 -0.78,-2.06l-5.09 -0.09 -3.15 -9.05c0,0 0.96,-4.17 -0.06,-6.44 -0.64,-0.23 -1.32,-0.25 -2.15,-0.08 -0.55,-1.1 -0.89,-2.39 -1.25,-3.58 -0.29,-0.96 -2.16,-6.65 -2.57,-7.01 -0.74,-0.66 -0.88,-0.06 -1.3,-1.16 -0.26,-0.68 -0.35,-1.08 -0.63,-1.66z"/>
  <g id="_1902495139200">
   <path class="fil1" d="M49.4 24.99c-0.07,-3.18 -0.02,-6.45 -0.02,-9.64 -0,-3.04 -0.15,-6.25 -0.12,-9.22l3.82 18.45c0.01,0.04 0.05,0.1 0.06,0.13 0.01,0.03 0.05,0.16 0.06,0.13 0.01,-0.03 0.04,0.09 0.07,0.13 2.5,-0 2.2,0.19 2.45,-0.99l3.55 -17.67 0 18.66 3.38 0.05 0.04 -24.65 -5.03 -0.01 -3.25 17.28c-0.24,-2.89 -1.01,-5.94 -1.55,-8.8 -0.53,-2.79 -1.22,-5.69 -1.65,-8.48l-5.09 -0.01 -0.01 24.61 3.29 0z"/>
   <path class="fil1" d="M83.37 7.95l5.46 17.03 3.7 -0.01 0.03 -24.58 -3.38 0.04 0.02 15.8c-0.04,-0.03 -4.9,-14.72 -5.1,-15.85l-4.17 0.04 -0.05 24.57 3.47 0.02 0.01 -17.05z"/>
   <path class="fil1" d="M119.08 14.68c-0.03,3.08 0.84,7.46 -2.92,7.47 -3.55,0.01 -2.76,-4.64 -2.76,-7.69 -0,-2.03 -0.26,-8.82 0.5,-10.09 0.86,-1.43 5.74,-2.7 5.07,3.25l3.79 0.02c-0.16,-2.74 -0.13,-4.15 -1.61,-5.81 -2.2,-2.48 -8.2,-2.62 -10.42,0.64 -1.18,1.73 -1.03,3.78 -1.03,6.13 0,3.37 -0.51,11.42 0.75,13.88 0.74,1.44 2.31,2.6 4.45,2.86 3.59,0.43 4.1,-0.89 5.09,-2.06 -0.01,0.71 0.28,1.18 0.52,1.71 0.85,0.13 1.32,0.18 2.16,-0.04l0.05 -13.42 -6.51 -0.06 -0.04 3.22 2.9 -0.01z"/>
   <path class="fil1" d="M126.24 0.37c0.05,5.23 -0,10.47 0,15.7 0,4.06 -0.27,9.35 6.44,9.31 2.74,-0.02 4.36,-1.01 5.33,-2.59 1.27,-2.09 1.02,-3.97 1.01,-6.73 -0,-2.74 -0.13,-13.91 0.05,-15.66l-3.78 -0.02 0.02 18.36c-0.05,2.05 -0.65,3.32 -2.63,3.37 -2.22,0.05 -2.68,-1.47 -2.7,-3.55 -0.04,-3.73 -0.2,-15.94 0.05,-18.16l-3.79 -0.03z"/>
   <polygon class="fil1" points="100.19,3.67 106.63,3.67 106.66,0.39 96.49,0.38 96.46,24.99 106.79,25 106.71,21.81 100.2,21.86 100.2,13.89 105.53,13.93 105.51,10.58 100.2,10.6 "/>
   <polygon class="fil1" points="70.19,3.67 76.58,3.67 76.58,0.38 66.53,0.37 66.52,24.99 76.77,25 76.7,21.81 70.22,21.81 70.2,13.89 75.62,13.98 75.56,10.6 70.22,10.6 "/>
   <polygon class="fil1" points="146.4,3.66 152.76,3.65 152.79,0.38 142.76,0.38 142.74,24.99 152.98,24.99 152.92,21.79 146.41,21.84 146.4,13.88 151.86,13.92 151.89,10.57 146.4,10.6 146.41,6.12 "/>
   <path class="fil1" d="M155.4 3.66l4.25 -0.01 -0.01 21.33 3.67 0.01 -0.01 -21.33 4.38 -0.03 0.03 -3.23c-1.99,-0.11 -10.83,-0.25 -12.28,0.09l-0.01 3.17z"/>
   <polygon class="fil1" points="170.19,3.66 174.45,3.65 174.41,24.98 178.07,25 178.05,3.67 182.39,3.67 182.43,0.38 170.23,0.46 "/>
   <polygon class="fil1" points="185.22,24.99 188.87,24.99 188.88,0.38 185.23,0.36 "/>
  </g>
  <g id="_1902495142992">
   <path class="fil0" d="M165.73 52.83c0.99,0.97 2.35,3.2 3.32,4.46 0.67,0.88 1.04,1.47 1.63,2.24 0.84,1.09 0.82,0.97 2.54,1.07l0.02 -10.89 -2 0 0.09 7.25c-0.7,-0.59 -2.43,-3.16 -3.16,-4.1 -2.5,-3.19 -1.69,-3.12 -4.24,-3.17l-0.04 10.77 1.92 0.04 -0.07 -7.67z"/>
   <path class="fil0" d="M181.56 56.2c0.49,-1.23 1.07,-2.78 1.71,-4.17l1.71 4.12 -3.42 0.05zm-0.55 1.7l4.66 -0.05 1.07 2.64 2.15 0.04c-0.48,-1.45 -4.01,-9.77 -4.73,-10.85l-1.98 0.02c-0.59,2.46 -3.71,8.15 -4.45,10.8l2.06 -0.01 1.23 -2.58z"/>
   <path class="fil0" d="M153.9 52.08c0.32,1.32 1.18,2.74 1.57,4.07l-3.37 0.06 1.8 -4.12zm-2.41 5.81l4.75 -0.06 0.97 2.6 2.21 0.07c-0.97,-3.08 -3.89,-8.55 -4.46,-10.87l-2.17 0.05c-0.54,1.77 -1.47,3.78 -2.27,5.52 -0.78,1.67 -1.45,3.51 -2.21,5.26l2.12 0.01 1.08 -2.58z"/>
   <path class="fil0" d="M117.91 56.22c0.54,-1.57 1.14,-2.66 1.58,-4.19 0.62,1.34 1.19,2.87 1.73,4.11l-3.32 0.08zm-1.9 4.23c0.65,-0.89 0.78,-1.85 1.22,-2.57l4.71 0c0.42,0.94 0.7,1.62 1.04,2.61l2.19 0.03c-0.69,-2.32 -3.3,-7.34 -4.51,-10.85l-1.98 0.1 -4.64 10.71 1.98 -0.04z"/>
   <polygon class="fil0" points="103.96,60.44 105.94,60.5 105.94,51.54 109.53,51.59 109.55,49.72 100.51,49.7 100.5,51.57 104,51.53 "/>
   <polygon class="fil0" points="129.63,60.47 137.27,60.49 137.28,58.67 131.63,58.7 131.68,49.71 129.67,49.71 "/>
   <polygon class="fil0" points="141.75,60.45 143.74,60.51 143.81,49.71 141.8,49.78 "/>
   <polygon class="fil0" points="93.99,60.5 95.96,60.42 96.02,49.75 94.02,49.71 "/>
  </g>
  <g id="_1902495145056">
   <path class="fil0" d="M162.13 35.48l3.2 4.31c0.63,0.85 1.92,3.02 2.59,3.23 0.23,0.07 0.61,0.06 0.85,0.04 0.71,-0.08 0.46,-0.09 0.7,-0.19l0.04 -10.69 -2.02 -0.03 0.04 7.31 -3.09 -4.09c-2.73,-3.55 -1.76,-3.18 -4.3,-3.2l-0.05 10.77 2.03 0.01 0.01 -7.47z"/>
   <path class="fil0" d="M137.46 34.02c2.64,-0.18 5.67,0.23 5.66,3.53 -0.02,3.34 -2.51,3.61 -5.67,3.59l0.01 -7.12zm-2.01 8.82c4.89,0.65 9.69,-0.17 9.68,-5.29 -0,-5 -4.82,-6.03 -9.63,-5.27l-0.06 10.56z"/>
   <path class="fil0" d="M112.84 33.98c3.08,0.01 5.6,0.33 5.66,3.57 0.07,3.98 -3.78,3.55 -5.63,3.59l-0.03 -7.17zm-1.93 8.96c2.91,-0.08 9.64,0.92 9.6,-5.4 -0.04,-6.33 -6.69,-5.34 -9.56,-5.38l-0.04 10.78z"/>
   <path class="fil0" d="M127.34 34.49c0.31,0.61 0.58,1.35 0.87,2.02 0.35,0.81 0.61,1.52 0.86,2.11l-3.41 0.03 1.68 -4.16zm-2.31 5.86l4.76 -0.03 0.97 2.63 2.21 -0.02c-0.75,-1.73 -1.52,-3.7 -2.31,-5.45 -0.77,-1.7 -1.63,-3.6 -2.21,-5.36l-1.99 0.1c-0.66,0.92 -4.38,9.63 -4.65,10.77l2.07 -0.04 1.14 -2.59z"/>
   <path class="fil0" d="M183.29 34.63c0.29,0.54 1.55,3.49 1.6,3.98l-3.2 -0.03c0.12,-0.63 0.43,-1.18 0.75,-1.91l0.86 -2.03zm2.33 5.68c0.18,0.41 0.37,0.85 0.57,1.33l0.73 1.3 1.96 0.03c-0.84,-2.21 -4.08,-9.17 -4.55,-10.85l-2.07 0.01c-1.48,3.78 -3.04,7.07 -4.47,10.79l2.09 -0 0.98 -2.56 4.76 -0.06z"/>
   <path class="fil0" d="M152.05 34.5c0.54,1.24 1.28,2.91 1.7,4.12l-3.32 0.01 1.62 -4.13zm-2.36 5.83l4.81 -0.07 0.93 2.66 2.26 0.04c-0.88,-2.22 -4.12,-9.21 -4.55,-10.85l-2.13 -0.01c-0.36,1.5 -1.59,3.93 -2.26,5.51 -0.78,1.83 -1.65,3.61 -2.26,5.35l2.05 -0.04 1.13 -2.6z"/>
   <path class="fil0" d="M101.33 39.93c-0.6,0.33 -0.34,0.23 -0.85,0.63 -4.2,3.31 -8.09,-4.28 -3.47,-6.35 2.12,-0.95 3.08,0.54 4.41,1.02 0.29,-0.53 0.25,-0.39 0.61,-0.85 0.22,-0.28 0.13,-0.15 0.34,-0.44l0.23 -0.34c-1.84,-1.01 -3.74,-2.36 -6.68,-1 -1.75,0.81 -3.11,2.6 -3.01,5.18 0.22,5.85 7.16,6.88 9.58,3.53 -0.15,-0.52 0.01,-0.18 -0.52,-0.74 -0.19,-0.2 -0.44,-0.44 -0.63,-0.64z"/>
   <path class="fil2" d="M137.44 41.14c3.17,0.02 5.66,-0.25 5.67,-3.59 0.02,-3.3 -3.02,-3.71 -5.66,-3.53l-0.01 7.12z"/>
   <path class="fil2" d="M112.86 41.15c1.85,-0.04 5.7,0.39 5.63,-3.59 -0.06,-3.24 -2.58,-3.56 -5.66,-3.57l0.03 7.17z"/>
   <polygon class="fil0" points="105.2,42.93 107.3,42.95 107.36,32.17 105.24,32.17 "/>
   <polygon class="fil0" points="173.16,42.88 175.13,42.96 175.16,32.15 173.22,32.28 "/>
   <path class="fil2" d="M125.66 38.64l3.41 -0.03c-0.25,-0.59 -0.51,-1.3 -0.86,-2.11 -0.29,-0.67 -0.56,-1.41 -0.87,-2.02l-1.68 4.16z"/>
   <path class="fil2" d="M150.43 38.63l3.32 -0.01c-0.42,-1.2 -1.16,-2.87 -1.7,-4.12l-1.62 4.13z"/>
   <path class="fil2" d="M182.43 36.66c-0.31,0.73 -0.63,1.28 -0.75,1.91l3.2 0.03c-0.05,-0.49 -1.31,-3.44 -1.6,-3.98l-0.86 2.03z"/>
  </g>
 </g>
</svg>
